<?xml version="1.0" encoding="UTF-8" standalone="no"?><!DOCTYPE svg PUBLIC "-//W3C//DTD SVG 1.1//EN" "http://www.w3.org/Graphics/SVG/1.1/DTD/svg11.dtd"><svg width="100%" height="100%" viewBox="0 0 10342 2055" version="1.1" xmlns="http://www.w3.org/2000/svg" xmlns:xlink="http://www.w3.org/1999/xlink" xml:space="preserve" xmlns:serif="http://www.serif.com/" style="fill-rule:evenodd;clip-rule:evenodd;stroke-linecap:round;stroke-linejoin:round;stroke-miterlimit:1.5;"><rect id="inline" x="0" y="0" width="10341.7" height="2054.76" style="fill:none;"/><g><g><path d="M1071.92,1038.51l-561.821,-897.038l42.471,-26.6l561.821,897.038l-42.471,26.6Z" style="fill:#3f4654;fill-opacity:0.7;"/><path d="M1112.25,908.219l-747.966,133.654l12.383,69.3l747.967,-133.654l-12.384,-69.3Z" style="fill:#3f4654;fill-opacity:0.7;"/><path d="M1829.97,333.89l-812.662,678.163l-56.088,-67.209l812.663,-678.162l56.087,67.208Z" style="fill:#3f4654;fill-opacity:0.7;"/><path d="M1085.44,926.994l-268.571,1023.81l-49.292,-12.929l268.571,-1023.81l49.292,12.929Z" style="fill:#3f4654;fill-opacity:0.7;"/><path d="M784.033,1925.86l-262.009,-1787.18l61.834,-9.067l262.008,1787.18l-61.833,9.067Z" style="fill:#828bb9;"/><path d="M1696.29,307.282l-1051.96,-117.013l5.541,-49.804l1051.96,117.013l-5.542,49.804Z" style="fill:#828bb9;"/><path d="M1786.21,319.844l-1514.66,819.717l-28.346,-52.375l1514.66,-819.717l28.346,52.375Z" style="fill:#828bb9;"/><path d="M619.754,127.603l-296.771,1016l-84.025,-24.545l296.771,-1016l84.025,24.546Z" style="fill:#828bb9;"/><path d="M735.087,1823.92l-418.746,-662.583l43.829,-27.7l418.746,662.583l-43.829,27.7Z" style="fill:#828bb9;fill-opacity:0.7;"/><circle id="ellipse52" cx="549.633" cy="171.394" r="140.325" style="fill:#fff;stroke:#323842;stroke-width:30px;"/><circle id="ellipse521" serif:id="ellipse52" cx="297.049" cy="1089.52" r="140.325" style="fill:#fff;stroke:#323842;stroke-width:30px;"/><circle id="ellipse522" serif:id="ellipse52" cx="1042.78" cy="937.169" r="140.325" style="fill:#fff;stroke:#323842;stroke-width:30px;"/><circle id="ellipse523" serif:id="ellipse52" cx="798.212" cy="1883.36" r="140.325" style="fill:#fff;stroke:#323842;stroke-width:30px;"/><path d="M1071.92,1038.51l-561.821,-897.038l42.471,-26.6l561.821,897.038l-42.471,26.6Z" style="fill:#403c5d;"/><path d="M1112.25,908.219l-747.966,133.654l12.383,69.3l747.967,-133.654l-12.384,-69.3Z" style="fill:#403c5d;"/><path d="M1829.97,333.89l-812.662,678.163l-56.088,-67.209l812.663,-678.162l56.087,67.208Z" style="fill:#403c5d;"/><path d="M1085.44,926.994l-268.571,1023.81l-49.292,-12.929l268.571,-1023.81l49.292,12.929Z" style="fill:#403c5d;"/><path d="M784.033,1925.86l-262.009,-1787.18l61.834,-9.067l262.008,1787.18l-61.833,9.067Z" style="fill:#636ff1;"/><path d="M657.245,1061.04l-10.216,-69.688l61.55,-11l10.216,69.688l-61.55,11Z" style="fill:#5156a7;"/><path d="M1696.29,307.282l-1051.96,-117.013l5.541,-49.804l1051.96,117.013l-5.542,49.804Z" style="fill:#636ff1;"/><path d="M1786.21,319.844l-1514.66,819.717l-28.346,-52.375l1514.66,-819.717l28.346,52.375Z" style="fill:#636ff1;"/><path d="M884.904,739.911l44.162,-23.9l31.675,50.571l-44.162,23.9l-31.675,-50.571Z" style="fill:#5156a7;"/><path d="M1685.99,374.082l-116.112,62.837l101.875,-85.016c4.054,7.854 8.829,15.275 14.237,22.175l0,0.004Z" style="fill:#5156a7;"/><path d="M619.754,127.603l-296.771,1016l-84.025,-24.545l296.771,-1016l84.025,24.546Z" style="fill:#636ff1;fill-opacity:0.98;"/><path d="M735.087,1823.92l-418.746,-662.583l43.829,-27.7l418.746,662.583l-43.829,27.7Z" style="fill:#636ff1;fill-opacity:0.7;"/><circle id="ellipse524" serif:id="ellipse52" cx="549.633" cy="171.394" r="140.325" style="fill:#fff;stroke:#403c5d;stroke-width:30px;"/><circle id="ellipse525" serif:id="ellipse52" cx="297.049" cy="1089.52" r="140.325" style="fill:#fff;stroke:#403c5d;stroke-width:30px;"/><circle id="ellipse526" serif:id="ellipse52" cx="1042.78" cy="937.169" r="140.325" style="fill:#fff;stroke:#403c5d;stroke-width:30px;"/><circle id="ellipse527" serif:id="ellipse52" cx="798.212" cy="1883.36" r="140.325" style="fill:#fff;stroke:#403c5d;stroke-width:30px;"/><circle id="ellipse528" serif:id="ellipse52" cx="1796.52" cy="287.665" r="140.325" style="fill:#fff;stroke:#403c5d;stroke-width:30px;"/><path d="M1781.13,1066.11c-89.092,-0 -136.346,46.483 -136.346,126.275l-0,57.329c-0,86.767 48.029,136.346 134.796,136.346l290.512,-0c28.663,-0 40.284,11.621 40.284,39.508l-0,31.763c-0,28.662 -13.946,41.833 -41.059,41.833l-406.716,0c-11.621,0 -17.042,6.196 -17.042,17.042l-0,75.146c-0,11.62 5.421,17.041 17.042,17.041l429.183,0c89.092,0 137.121,-46.483 137.121,-126.275l-0,-62.75c-0,-86.766 -48.804,-136.346 -135.571,-136.346l-289.738,0c-28.662,0 -41.058,-11.62 -41.058,-39.508l0,-26.342c0,-28.662 13.171,-41.833 41.058,-41.833l388.121,0c10.846,0 17.042,-6.196 17.042,-17.042l-0,-75.145c-0,-11.621 -6.196,-17.042 -17.042,-17.042l-410.587,-0Z" style="fill:#636ff1;fill-rule:nonzero;"/><path d="M2775.07,1183.09c-9.296,0 -13.946,3.1 -18.591,10.846l-179.73,316.85c-11.62,-1.55 -14.72,-6.196 -21.691,-17.817l-171.984,-299.033c-3.875,-7.746 -9.295,-10.846 -18.591,-10.846l-89.867,0c-10.846,0 -15.496,10.071 -10.071,19.367l209.167,361.008c12.396,23.242 27.112,31.763 54.229,33.313l-36.412,63.525c-6.971,13.17 -18.592,17.816 -39.509,17.816l-55.779,0c-9.296,0 -13.946,4.65 -13.946,13.946l0,73.596c0,9.296 4.65,13.946 13.946,13.946l54.229,-0c65.075,-0 102.259,-16.267 122.4,-52.679l297.484,-524.471c5.42,-9.296 0.775,-19.367 -10.071,-19.367l-85.217,0l0.004,0Z" style="fill:#403c5d;fill-rule:nonzero;"/><path d="M3074.1,1183.09c-136.346,0 -183.605,42.608 -183.605,156.488l0,251.775c0,11.62 5.421,17.041 17.042,17.041l75.921,0c11.621,0 17.042,-5.421 17.042,-17.041l-0,-224.663c-0,-65.85 17.816,-85.217 84.441,-85.217l206.071,0c64.3,0 79.792,16.267 79.792,85.217l-0,224.663c-0,11.62 6.196,17.041 17.041,17.041l75.921,0c11.621,0 17.042,-5.421 17.042,-17.041l-0,-251.775c-0,-113.88 -47.258,-156.488 -184.379,-156.488l-222.338,0l0.009,0Z" style="fill:#403c5d;fill-rule:nonzero;"/><path d="M3555.19,1183.09c-9.296,0 -13.946,4.65 -13.946,13.946l0,67.4c0,9.296 4.65,13.946 13.946,13.946l73.596,-0l-0,175.854c-0,113.879 37.187,154.162 157.262,154.162l94.513,0c9.296,0 13.946,-4.65 13.946,-13.945l-0,-67.4c-0,-9.296 -4.65,-13.946 -13.946,-13.946l-75.921,-0c-50.354,-0 -65.075,-15.496 -65.075,-58.875l-0,-175.854l136.346,-0c9.296,-0 13.946,-4.65 13.946,-13.946l-0,-67.4c-0,-9.296 -4.65,-13.946 -13.946,-13.946l-136.346,-0l-0,-102.258c-0,-11.621 -6.196,-17.817 -17.042,-17.817l-76.696,-0c-10.845,-0 -17.041,6.196 -17.041,17.817l-0,102.258l-73.596,-0l-0,0.004Z" style="fill:#403c5d;fill-rule:nonzero;"/><path d="M3974.3,1027.38c-11.62,-0 -17.041,5.42 -17.041,17.041l-0,546.938c-0,11.621 5.421,17.041 17.041,17.041l75.921,0c10.846,0 17.042,-5.42 17.042,-17.041l-0,-309.879l284.312,-0c64.3,-0 79.792,16.266 79.792,85.216l0,224.663c0,11.621 6.196,17.041 17.042,17.041l75.921,0c11.62,0 17.041,-5.42 17.041,-17.041l0,-251.775c0,-113.879 -47.258,-156.488 -184.379,-156.488l-289.737,0l-0,-138.671c-0,-11.62 -6.196,-17.041 -17.042,-17.041l-75.921,-0l0.008,-0.004Z" style="fill:#403c5d;fill-rule:nonzero;"/><path d="M4709.49,1066.11c-48.804,-0 -68.95,19.367 -68.95,80.567l-0,444.675c-0,11.62 5.421,17.041 17.042,17.041l82.891,0c10.846,0 17.042,-5.421 17.042,-17.041l-0,-404.392c-0,-5.421 1.55,-7.746 6.196,-7.746l6.971,0c4.65,0 6.97,1.55 10.07,5.421l285.863,378.05c24.017,34.087 33.312,45.708 89.092,45.708l68.95,0c48.804,0 69.72,-19.366 69.72,-80.566l0,-444.675c0,-11.621 -5.42,-17.042 -17.041,-17.042l-82.892,-0c-11.621,-0 -17.042,5.421 -17.042,17.042l0,404.391c0,5.421 -2.325,7.746 -6.195,7.746l-6.971,0c-4.65,0 -7.746,-1.55 -10.071,-5.421l-285.088,-378.05c-24.791,-34.087 -34.087,-45.708 -89.866,-45.708l-69.721,-0Z" style="fill:#636ff1;fill-rule:nonzero;"/><path d="M5562.43,1183.09c-137.121,0 -184.38,42.608 -184.38,156.488l0,112.329c0,114.654 47.259,156.487 184.38,156.487l333.895,0c9.296,0 13.946,-4.65 13.946,-13.946l0,-68.175c0,-9.295 -4.65,-13.945 -13.946,-13.945l-323.05,-0c-66.625,-0 -85.216,-16.267 -85.216,-65.075l-0,-13.946l391.221,-0c30.987,-0 44.158,-11.621 44.158,-43.384l-0,-79.791c-0,-96.063 -30.213,-127.05 -134.021,-127.05l-226.987,-0l-0,0.008Zm-74.371,170.433l-0,-15.495c-0,-48.805 16.266,-62.75 85.216,-62.75l193.675,-0c37.959,-0 47.259,7.745 47.259,37.958l-0,27.112c-0,8.521 -3.875,13.171 -13.171,13.171l-312.979,0l-0,0.004Z" style="fill:#403c5d;fill-rule:nonzero;"/><path d="M5984.64,1183.09c-9.296,0 -13.946,4.65 -13.946,13.946l0,67.4c0,9.296 4.65,13.946 13.946,13.946l73.596,-0l-0,175.854c-0,113.879 37.187,154.162 157.262,154.162l94.513,0c9.296,0 13.946,-4.65 13.946,-13.945l-0,-67.4c-0,-9.296 -4.65,-13.946 -13.946,-13.946l-75.921,-0c-50.354,-0 -65.075,-15.496 -65.075,-58.875l-0,-175.854l136.346,-0c9.296,-0 13.946,-4.65 13.946,-13.946l-0,-67.4c-0,-9.296 -4.65,-13.946 -13.946,-13.946l-136.346,-0l-0,-102.258c-0,-11.621 -6.196,-17.817 -17.042,-17.817l-76.696,-0c-10.845,-0 -17.041,6.196 -17.041,17.817l-0,102.258l-73.596,-0l-0,0.004Z" style="fill:#403c5d;fill-rule:nonzero;"/><path d="M6803.39,1085.48c-89.092,-0 -136.346,46.483 -136.346,126.275l0,57.329c0,86.766 48.029,136.346 134.796,136.346l290.512,-0c28.663,-0 40.284,11.62 40.284,39.508l-0,31.762c-0,28.663 -13.946,41.834 -41.059,41.834l-406.716,-0c-11.621,-0 -17.042,6.196 -17.042,17.041l0,75.146c0,11.621 5.421,17.042 17.042,17.042l429.183,-0c89.092,-0 137.121,-46.483 137.121,-126.275l-0,-62.75c-0,-86.767 -48.804,-136.346 -135.571,-136.346l-289.737,0c-28.663,0 -41.059,-11.621 -41.059,-39.508l0,-26.342c0,-28.662 13.171,-41.833 41.059,-41.833l388.12,-0c10.846,-0 17.042,-6.196 17.042,-17.042l0,-75.146c0,-11.621 -6.196,-17.041 -17.042,-17.041l-410.587,-0Z" style="fill:#636ff1;fill-rule:nonzero;"/><path d="M7504.49,1202.46c-137.121,-0 -184.379,42.608 -184.379,156.487l-0,112.329c-0,114.655 47.258,156.488 184.379,156.488l333.896,-0c9.296,-0 13.946,-4.65 13.946,-13.946l-0,-68.175c-0,-9.296 -4.65,-13.946 -13.946,-13.946l-323.05,0c-66.625,0 -85.217,-16.266 -85.217,-65.075l0,-13.946l391.221,0c30.987,0 44.158,-11.62 44.158,-43.383l0,-79.792c0,-96.062 -30.212,-127.05 -134.021,-127.05l-226.987,0l-0,0.009Zm-74.371,170.433l0,-15.496c0,-48.804 16.267,-62.75 85.217,-62.75l193.675,0c37.958,0 47.258,7.746 47.258,37.959l0,27.112c0,8.521 -3.875,13.171 -13.171,13.171l-312.979,-0l0,0.004Z" style="fill:#403c5d;fill-rule:nonzero;"/><path d="M7958.46,1202.46c-9.296,-0 -13.946,4.65 -13.946,13.946l-0,68.175c-0,9.295 4.65,13.945 13.946,13.945l323.05,0c66.625,0 85.216,17.817 85.216,67.4l0,7.746l-316.075,0c-83.666,0 -119.304,34.863 -119.304,106.909l0,37.187c0,79.792 30.213,110.008 119.304,110.008l368.755,0c45.708,0 57.329,-12.395 57.329,-61.975l-0,-206.845c-0,-113.88 -47.259,-156.488 -184.379,-156.488l-333.896,0l-0,-0.008Zm384.25,333.121l-259.525,-0c-33.313,-0 -42.609,-6.971 -42.609,-33.313l0,-16.267c0,-23.241 9.296,-32.537 42.609,-32.537l283.537,-0l0,56.554c0,18.592 -6.971,25.567 -24.016,25.567l0.004,-0.004Z" style="fill:#403c5d;fill-rule:nonzero;"/><path d="M8741.68,1202.46c-136.346,-0 -183.605,42.608 -183.605,156.487l0,251.775c0,11.621 5.421,17.042 17.042,17.042l75.921,-0c11.621,-0 17.042,-5.421 17.042,-17.042l-0,-230.083c-0,-65.075 17.041,-82.117 84.441,-82.117l206.071,0c9.296,0 13.946,-4.65 13.946,-13.946l-0,-68.175c-0,-9.295 -4.65,-13.945 -13.946,-13.945l-216.917,-0l0.005,0.004Z" style="fill:#403c5d;fill-rule:nonzero;"/><path d="M9201.07,1202.46c-137.121,-0 -184.379,42.608 -184.379,156.487l0,112.329c0,114.655 47.258,156.488 184.379,156.488l311.429,-0c9.296,-0 13.946,-4.65 13.946,-13.946l0,-68.175c0,-9.296 -4.65,-13.946 -13.946,-13.946l-300.583,0c-67.4,0 -84.442,-17.041 -84.442,-82.116l0,-68.95c0,-65.075 17.042,-82.117 84.442,-82.117l300.583,-0c9.296,-0 13.946,-4.65 13.946,-13.946l0,-68.175c0,-9.296 -4.65,-13.946 -13.946,-13.946l-311.429,0l0,0.013Z" style="fill:#403c5d;fill-rule:nonzero;"/><path d="M9617.86,1046.74c-11.621,0 -17.042,5.421 -17.042,17.042l0,546.937c0,11.621 5.421,17.042 17.042,17.042l75.921,0c10.845,0 17.041,-5.421 17.041,-17.042l0,-309.879l284.313,0c64.3,0 79.791,16.267 79.791,85.217l0,224.662c0,11.621 6.196,17.042 17.042,17.042l75.921,0c11.621,0 17.042,-5.421 17.042,-17.042l-0,-251.775c-0,-113.879 -47.259,-156.487 -184.38,-156.487l-289.737,-0l-0,-138.671c-0,-11.621 -6.196,-17.042 -17.042,-17.042l-75.921,0l0.009,-0.004Z" style="fill:#403c5d;fill-rule:nonzero;"/></g></g></svg>