<?xml version="1.0" encoding="UTF-8" standalone="no"?><!DOCTYPE svg PUBLIC "-//W3C//DTD SVG 1.1//EN" "http://www.w3.org/Graphics/SVG/1.1/DTD/svg11.dtd"><svg width="100%" height="100%" viewBox="0 0 9180 3543" version="1.1" xmlns="http://www.w3.org/2000/svg" xmlns:xlink="http://www.w3.org/1999/xlink" xml:space="preserve" xmlns:serif="http://www.serif.com/" style="fill-rule:evenodd;clip-rule:evenodd;stroke-linecap:round;stroke-linejoin:round;stroke-miterlimit:1.5;"><rect id="stacked" x="0" y="-0" width="9179.17" height="3542.84" style="fill:none;"/><g><g><path d="M1715.28,1790.62l-969.204,-1547.5l73.267,-45.887l969.204,1547.5l-73.267,45.887Z" style="fill:#3f4654;fill-opacity:0.7;"/><path d="M1784.85,1565.85l-1290.33,230.571l21.362,119.554l1290.33,-230.571l-21.362,-119.554Z" style="fill:#3f4654;fill-opacity:0.7;"/><path d="M3023,575.069l-1401.94,1169.91l-96.755,-115.945l1401.94,-1169.91l96.754,115.946Z" style="fill:#3f4654;fill-opacity:0.7;"/><path d="M1738.6,1598.24l-463.317,1766.2l-85.033,-22.309l463.317,-1766.2l85.033,22.309Z" style="fill:#3f4654;fill-opacity:0.7;"/><path d="M1218.64,3321.4l-451.992,-3083.1l106.671,-15.638l451.991,3083.1l-106.67,15.637Z" style="fill:#828bb9;"/><path d="M2792.4,529.165l-1814.76,-201.858l9.559,-85.921l1814.76,201.858l-9.558,85.921Z" style="fill:#828bb9;"/><path d="M2947.52,550.832l-2612.96,1414.11l-48.896,-90.35l2612.96,-1414.11l48.896,90.35Z" style="fill:#828bb9;"/><path d="M935.246,219.198l-511.967,1752.71l-144.954,-42.342l511.967,-1752.71l144.954,42.341Z" style="fill:#828bb9;"/><path d="M1134.2,3145.55l-722.383,-1143.03l75.612,-47.788l722.384,1143.03l-75.613,47.787Z" style="fill:#828bb9;fill-opacity:0.7;"/><circle id="ellipse52" cx="814.279" cy="294.74" r="242.079" style="fill:#fff;stroke:#323842;stroke-width:51.75px;"/><circle id="ellipse521" serif:id="ellipse52" cx="378.537" cy="1878.62" r="242.079" style="fill:#fff;stroke:#323842;stroke-width:51.75px;"/><circle id="ellipse522" serif:id="ellipse52" cx="1665.01" cy="1615.79" r="242.079" style="fill:#fff;stroke:#323842;stroke-width:51.75px;"/><circle id="ellipse523" serif:id="ellipse52" cx="1243.1" cy="3248.09" r="242.079" style="fill:#fff;stroke:#323842;stroke-width:51.75px;"/><path d="M1715.28,1790.62l-969.204,-1547.5l73.267,-45.887l969.204,1547.5l-73.267,45.887Z" style="fill:#403c5d;"/><path d="M1784.85,1565.85l-1290.33,230.571l21.362,119.554l1290.33,-230.571l-21.362,-119.554Z" style="fill:#403c5d;"/><path d="M3023,575.069l-1401.94,1169.91l-96.755,-115.945l1401.94,-1169.91l96.754,115.946Z" style="fill:#403c5d;"/><path d="M1738.6,1598.24l-463.317,1766.2l-85.033,-22.309l463.317,-1766.2l85.033,22.309Z" style="fill:#403c5d;"/><path d="M1218.64,3321.4l-451.992,-3083.1l106.671,-15.638l451.991,3083.1l-106.67,15.637Z" style="fill:#636ff1;"/><path d="M999.921,1829.48l-17.625,-120.22l106.183,-18.975l17.625,120.22l-106.183,18.975Z" style="fill:#5156a7;"/><path d="M2792.4,529.165l-1814.76,-201.858l9.559,-85.921l1814.76,201.858l-9.558,85.921Z" style="fill:#636ff1;"/><path d="M2947.52,550.832l-2612.96,1414.11l-48.896,-90.35l2612.96,-1414.11l48.896,90.35Z" style="fill:#636ff1;"/><path d="M1392.65,1275.5l76.183,-41.229l54.642,87.242l-76.183,41.229l-54.642,-87.242Z" style="fill:#5156a7;"/><path d="M2774.63,644.402l-200.308,108.405l175.75,-146.663c6.996,13.546 15.229,26.35 24.558,38.258Z" style="fill:#5156a7;"/><path d="M935.246,219.198l-511.967,1752.71l-144.954,-42.342l511.967,-1752.71l144.954,42.341Z" style="fill:#636ff1;fill-opacity:0.98;"/><path d="M1134.2,3145.55l-722.383,-1143.03l75.612,-47.788l722.384,1143.03l-75.613,47.787Z" style="fill:#636ff1;fill-opacity:0.7;"/><circle id="ellipse524" serif:id="ellipse52" cx="814.279" cy="294.74" r="242.079" style="fill:#fff;stroke:#403c5d;stroke-width:51.75px;"/><circle id="ellipse525" serif:id="ellipse52" cx="378.537" cy="1878.62" r="242.079" style="fill:#fff;stroke:#403c5d;stroke-width:51.75px;"/><circle id="ellipse526" serif:id="ellipse52" cx="1665.01" cy="1615.79" r="242.079" style="fill:#fff;stroke:#403c5d;stroke-width:51.75px;"/><circle id="ellipse527" serif:id="ellipse52" cx="1243.1" cy="3248.09" r="242.079" style="fill:#fff;stroke:#403c5d;stroke-width:51.75px;"/><circle id="ellipse528" serif:id="ellipse52" cx="2965.31" cy="495.319" r="242.079" style="fill:#fff;stroke:#403c5d;stroke-width:51.75px;"/><path d="M2868.8,1489.75c-121.079,0 -185.3,63.171 -185.3,171.613l-0,77.912c-0,117.921 65.275,185.3 183.196,185.3l394.821,0c38.954,0 54.75,15.792 54.75,53.696l-0,43.167c-0,38.954 -18.95,56.854 -55.8,56.854l-552.746,-0c-15.792,-0 -23.163,8.421 -23.163,23.162l0,102.125c0,15.792 7.371,23.163 23.163,23.163l583.279,-0c121.079,-0 186.354,-63.171 186.354,-171.613l0,-85.279c0,-117.921 -66.329,-185.3 -184.25,-185.3l-393.767,0c-38.954,0 -55.8,-15.791 -55.8,-53.696l0,-35.795c0,-38.955 17.9,-56.855 55.8,-56.855l527.48,0c14.741,0 23.162,-8.42 23.162,-23.162l0,-102.125c0,-15.792 -8.421,-23.163 -23.162,-23.163l-558.013,0l-0.004,-0.004Z" style="fill:#636ff1;fill-rule:nonzero;"/><path d="M4219.6,1648.73c-12.633,0 -18.95,4.213 -25.267,14.742l-244.262,430.617c-15.792,-2.104 -20.004,-8.421 -29.479,-24.217l-233.734,-406.4c-5.262,-10.529 -12.633,-14.742 -25.266,-14.742l-122.129,0c-14.742,0 -21.059,13.688 -13.688,26.321l284.271,490.629c16.846,31.588 36.85,43.167 73.7,45.271l-49.483,86.334c-9.475,17.9 -25.267,24.216 -53.696,24.216l-75.804,0c-12.634,0 -18.95,6.317 -18.95,18.95l-0,100.021c-0,12.633 6.316,18.95 18.95,18.95l73.7,0c88.437,0 138.975,-22.108 166.35,-71.596l404.296,-712.779c7.37,-12.633 1.054,-26.321 -13.688,-26.321l-115.813,0l-0.008,0.004Z" style="fill:#403c5d;fill-rule:nonzero;"/><path d="M4626,1648.73c-185.3,0 -249.525,57.909 -249.525,212.675l0,342.175c0,15.792 7.371,23.163 23.163,23.163l103.179,-0c15.791,-0 23.162,-7.371 23.162,-23.163l0,-305.325c0,-89.491 24.217,-115.812 114.763,-115.812l280.058,-0c87.388,-0 108.442,22.108 108.442,115.812l-0,305.325c-0,15.792 8.421,23.163 23.162,23.163l103.179,-0c15.792,-0 23.163,-7.371 23.163,-23.163l-0,-342.175c-0,-154.77 -64.225,-212.675 -250.579,-212.675l-302.167,0Z" style="fill:#403c5d;fill-rule:nonzero;"/><path d="M5279.82,1648.73c-12.633,0 -18.95,6.317 -18.95,18.95l0,91.6c0,12.634 6.317,18.95 18.95,18.95l100.021,0l-0,238.996c-0,154.771 50.537,209.517 213.729,209.517l128.446,-0c12.633,-0 18.95,-6.317 18.95,-18.95l-0,-91.6c-0,-12.633 -6.317,-18.95 -18.95,-18.95l-103.179,-0c-68.434,-0 -88.438,-21.058 -88.438,-80.017l0,-238.996l185.3,0c12.634,0 18.95,-6.316 18.95,-18.95l0,-91.6c0,-12.633 -6.316,-18.95 -18.95,-18.95l-185.3,0l0,-138.975c0,-15.791 -8.421,-24.216 -23.162,-24.216l-104.234,-0c-14.741,-0 -23.162,8.421 -23.162,24.216l-0,138.975l-100.021,0Z" style="fill:#403c5d;fill-rule:nonzero;"/><path d="M5849.42,1437.1c-15.792,0 -23.163,7.371 -23.163,23.163l0,743.312c0,15.792 7.371,23.163 23.163,23.163l103.179,-0c14.742,-0 23.162,-7.371 23.162,-23.163l0,-421.141l386.396,-0c87.388,-0 108.442,22.108 108.442,115.812l-0,305.325c-0,15.792 8.421,23.163 23.162,23.163l103.18,-0c15.791,-0 23.162,-7.371 23.162,-23.163l0,-342.175c0,-154.771 -64.225,-212.675 -250.579,-212.675l-393.767,0l0,-188.458c0,-15.792 -8.421,-23.163 -23.162,-23.163l-103.179,0l0.004,0Z" style="fill:#403c5d;fill-rule:nonzero;"/><path d="M6848.57,1489.75c-66.329,0 -93.704,26.321 -93.704,109.496l-0,604.338c-0,15.791 7.371,23.162 23.162,23.162l112.654,0c14.742,0 23.163,-7.371 23.163,-23.162l-0,-549.588c-0,-7.371 2.104,-10.529 8.421,-10.529l9.475,-0c6.316,-0 9.475,2.104 13.687,7.371l388.5,513.791c32.638,46.325 45.271,62.117 121.079,62.117l93.705,0c66.329,0 94.758,-26.321 94.758,-109.496l-0,-604.337c-0,-15.792 -7.371,-23.163 -23.163,-23.163l-112.654,0c-15.791,0 -23.162,7.371 -23.162,23.163l-0,549.587c-0,7.371 -3.159,10.529 -8.421,10.529l-9.475,0c-6.317,0 -10.529,-2.104 -13.688,-7.37l-387.45,-513.792c-33.691,-46.325 -46.325,-62.117 -122.129,-62.117l-94.758,0Z" style="fill:#636ff1;fill-rule:nonzero;"/><path d="M8007.76,1648.73c-186.354,0 -250.579,57.909 -250.579,212.675l0,152.663c0,155.821 64.225,212.675 250.579,212.675l453.78,-0c12.633,-0 18.95,-6.317 18.95,-18.95l-0,-92.65c-0,-12.633 -6.317,-18.95 -18.95,-18.95l-439.038,-0c-90.546,-0 -115.812,-22.108 -115.812,-88.438l-0,-18.95l531.687,0c42.113,0 60.013,-15.791 60.013,-58.958l-0,-108.442c-0,-130.554 -41.063,-172.666 -182.142,-172.666l-308.483,-0l-0.005,-0.009Zm-101.075,231.63l0,-21.063c0,-66.329 22.109,-85.279 115.813,-85.279l263.212,-0c51.592,-0 64.225,10.529 64.225,51.592l0,36.85c0,11.583 -5.262,17.9 -17.9,17.9l-425.35,-0Z" style="fill:#403c5d;fill-rule:nonzero;"/><path d="M8581.56,1648.73c-12.634,0 -18.95,6.317 -18.95,18.95l-0,91.6c-0,12.634 6.316,18.95 18.95,18.95l100.02,0l0,238.996c0,154.771 50.538,209.517 213.73,209.517l128.445,-0c12.634,-0 18.95,-6.317 18.95,-18.95l0,-91.6c0,-12.633 -6.316,-18.95 -18.95,-18.95l-103.179,-0c-68.433,-0 -88.437,-21.058 -88.437,-80.017l-0,-238.996l185.3,0c12.633,0 18.95,-6.316 18.95,-18.95l-0,-91.6c-0,-12.633 -6.317,-18.95 -18.95,-18.95l-185.3,0l-0,-138.975c-0,-15.791 -8.421,-24.216 -23.163,-24.216l-104.233,-0c-14.742,-0 -23.163,8.421 -23.163,24.216l0,138.975l-100.02,0Z" style="fill:#403c5d;fill-rule:nonzero;"/><path d="M2868.8,2753.16c-121.079,-0 -185.3,63.171 -185.3,171.612l-0,77.913c-0,117.921 65.275,185.3 183.196,185.3l394.821,-0c38.954,-0 54.75,15.792 54.75,53.696l-0,43.166c-0,38.955 -18.95,56.855 -55.8,56.855l-552.746,-0c-15.792,-0 -23.163,8.42 -23.163,23.162l0,102.125c0,15.792 7.371,23.163 23.163,23.163l583.279,-0c121.079,-0 186.354,-63.171 186.354,-171.613l0,-85.279c0,-117.921 -66.329,-185.3 -184.25,-185.3l-393.767,-0c-38.954,-0 -55.8,-15.792 -55.8,-53.696l0,-35.796c0,-38.954 17.9,-56.854 55.8,-56.854l527.48,0c14.741,0 23.162,-8.421 23.162,-23.162l0,-102.125c0,-15.792 -8.421,-23.163 -23.162,-23.163l-558.013,0l-0.004,-0.004Z" style="fill:#636ff1;fill-rule:nonzero;"/><path d="M3821.63,2912.15c-186.354,0 -250.579,57.909 -250.579,212.675l-0,152.663c-0,155.821 64.225,212.675 250.579,212.675l453.779,-0c12.634,-0 18.95,-6.317 18.95,-18.95l0,-92.65c0,-12.634 -6.316,-18.95 -18.95,-18.95l-439.037,-0c-90.546,-0 -115.813,-22.109 -115.813,-88.438l0,-18.95l531.688,0c42.112,0 60.012,-15.791 60.012,-58.958l0,-108.442c0,-130.554 -41.062,-172.666 -182.141,-172.666l-308.484,-0l-0.004,-0.009Zm-101.075,231.629l0,-21.062c0,-66.329 22.108,-85.279 115.813,-85.279l263.212,-0c51.592,-0 64.225,10.529 64.225,51.591l0,36.85c0,11.584 -5.262,17.9 -17.9,17.9l-425.35,0Z" style="fill:#403c5d;fill-rule:nonzero;"/><path d="M4438.6,2912.15c-12.633,0 -18.95,6.317 -18.95,18.95l-0,92.65c-0,12.634 6.316,18.95 18.95,18.95l439.037,0c90.546,0 115.813,24.217 115.813,91.6l-0,10.529l-429.563,0c-113.708,0 -162.137,47.38 -162.137,145.292l-0,50.538c-0,108.441 41.062,149.504 162.137,149.504l501.159,-0c62.116,-0 77.912,-16.846 77.912,-84.229l0,-281.113c0,-154.771 -64.225,-212.675 -250.579,-212.675l-453.779,0l-0,0.004Zm522.212,452.725l-352.704,0c-45.271,0 -57.908,-9.475 -57.908,-45.271l-0,-22.108c-0,-31.587 12.633,-44.221 57.908,-44.221l385.342,0l-0,76.859c-0,25.266 -9.475,34.745 -32.638,34.745l0,-0.004Z" style="fill:#403c5d;fill-rule:nonzero;"/><path d="M5503.03,2912.15c-185.3,0 -249.525,57.909 -249.525,212.675l0,342.175c0,15.792 7.371,23.163 23.163,23.163l103.179,-0c15.792,-0 23.162,-7.371 23.162,-23.163l0,-312.696c0,-88.437 23.163,-111.604 114.763,-111.604l280.058,0c12.633,0 18.95,-6.316 18.95,-18.95l0,-92.65c0,-12.633 -6.316,-18.95 -18.95,-18.95l-294.8,0Z" style="fill:#403c5d;fill-rule:nonzero;"/><path d="M6127.37,2912.15c-186.354,0 -250.579,57.909 -250.579,212.675l-0,152.663c-0,155.821 64.225,212.675 250.579,212.675l423.246,-0c12.633,-0 18.95,-6.317 18.95,-18.95l-0,-92.65c-0,-12.634 -6.317,-18.95 -18.95,-18.95l-408.504,-0c-91.6,-0 -114.763,-23.163 -114.763,-111.604l0,-93.705c0,-88.437 23.163,-111.604 114.763,-111.604l408.504,0c12.633,0 18.95,-6.316 18.95,-18.95l-0,-92.65c-0,-12.633 -6.317,-18.95 -18.95,-18.95l-423.246,0Z" style="fill:#403c5d;fill-rule:nonzero;"/><path d="M6693.8,2700.52c-15.791,0 -23.162,7.371 -23.162,23.163l-0,743.312c-0,15.792 7.371,23.163 23.162,23.163l103.179,-0c14.742,-0 23.163,-7.371 23.163,-23.163l-0,-421.141l386.396,-0c87.387,-0 108.441,22.108 108.441,115.812l0,305.325c0,15.792 8.421,23.163 23.163,23.163l103.179,-0c15.792,-0 23.163,-7.371 23.163,-23.163l-0,-342.175c-0,-154.771 -64.225,-212.675 -250.58,-212.675l-393.766,0l-0,-188.458c-0,-15.792 -8.421,-23.163 -23.163,-23.163l-103.179,0l0.004,0Z" style="fill:#403c5d;fill-rule:nonzero;"/><path d="M1715.28,1790.62l-969.204,-1547.5l73.267,-45.887l969.204,1547.5l-73.267,45.887Z" style="fill:#3f4654;fill-opacity:0.7;"/><path d="M1784.85,1565.85l-1290.33,230.571l21.362,119.554l1290.33,-230.571l-21.362,-119.554Z" style="fill:#3f4654;fill-opacity:0.7;"/><path d="M3023,575.069l-1401.94,1169.91l-96.755,-115.945l1401.94,-1169.91l96.754,115.946Z" style="fill:#3f4654;fill-opacity:0.7;"/><path d="M1738.6,1598.24l-463.317,1766.2l-85.033,-22.309l463.317,-1766.2l85.033,22.309Z" style="fill:#3f4654;fill-opacity:0.7;"/><path d="M1218.64,3321.4l-451.992,-3083.1l106.671,-15.638l451.991,3083.1l-106.67,15.637Z" style="fill:#828bb9;"/><path d="M2792.4,529.165l-1814.76,-201.858l9.559,-85.921l1814.76,201.858l-9.558,85.921Z" style="fill:#828bb9;"/><path d="M2947.52,550.832l-2612.96,1414.11l-48.896,-90.35l2612.96,-1414.11l48.896,90.35Z" style="fill:#828bb9;"/><path d="M935.246,219.198l-511.967,1752.71l-144.954,-42.342l511.967,-1752.71l144.954,42.341Z" style="fill:#828bb9;"/><path d="M1134.2,3145.55l-722.383,-1143.03l75.612,-47.788l722.384,1143.03l-75.613,47.787Z" style="fill:#828bb9;fill-opacity:0.7;"/><circle id="ellipse529" serif:id="ellipse52" cx="814.279" cy="294.74" r="242.079" style="fill:#fff;stroke:#323842;stroke-width:51.75px;"/><circle id="ellipse5210" serif:id="ellipse52" cx="378.537" cy="1878.62" r="242.079" style="fill:#fff;stroke:#323842;stroke-width:51.75px;"/><circle id="ellipse5211" serif:id="ellipse52" cx="1665.01" cy="1615.79" r="242.079" style="fill:#fff;stroke:#323842;stroke-width:51.75px;"/><circle id="ellipse5212" serif:id="ellipse52" cx="1243.1" cy="3248.09" r="242.079" style="fill:#fff;stroke:#323842;stroke-width:51.75px;"/><path d="M1715.28,1790.62l-969.204,-1547.5l73.267,-45.887l969.204,1547.5l-73.267,45.887Z" style="fill:#403c5d;"/><path d="M1784.85,1565.85l-1290.33,230.571l21.362,119.554l1290.33,-230.571l-21.362,-119.554Z" style="fill:#403c5d;"/><path d="M3023,575.069l-1401.94,1169.91l-96.755,-115.945l1401.94,-1169.91l96.754,115.946Z" style="fill:#403c5d;"/><path d="M1738.6,1598.24l-463.317,1766.2l-85.033,-22.309l463.317,-1766.2l85.033,22.309Z" style="fill:#403c5d;"/><path d="M1218.64,3321.4l-451.992,-3083.1l106.671,-15.638l451.991,3083.1l-106.67,15.637Z" style="fill:#636ff1;"/><path d="M999.921,1829.48l-17.625,-120.22l106.183,-18.975l17.625,120.22l-106.183,18.975Z" style="fill:#5156a7;"/><path d="M2792.4,529.165l-1814.76,-201.858l9.559,-85.921l1814.76,201.858l-9.558,85.921Z" style="fill:#636ff1;"/><path d="M2947.52,550.832l-2612.96,1414.11l-48.896,-90.35l2612.96,-1414.11l48.896,90.35Z" style="fill:#636ff1;"/><path d="M1392.65,1275.5l76.183,-41.229l54.642,87.242l-76.183,41.229l-54.642,-87.242Z" style="fill:#5156a7;"/><path d="M2774.63,644.402l-200.308,108.405l175.75,-146.663c6.996,13.546 15.229,26.35 24.558,38.258Z" style="fill:#5156a7;"/><path d="M935.246,219.198l-511.967,1752.71l-144.954,-42.342l511.967,-1752.71l144.954,42.341Z" style="fill:#636ff1;fill-opacity:0.98;"/><path d="M1134.2,3145.55l-722.383,-1143.03l75.612,-47.788l722.384,1143.03l-75.613,47.787Z" style="fill:#636ff1;fill-opacity:0.7;"/><circle id="ellipse5213" serif:id="ellipse52" cx="814.279" cy="294.74" r="242.079" style="fill:#fff;stroke:#403c5d;stroke-width:51.75px;"/><circle id="ellipse5214" serif:id="ellipse52" cx="378.537" cy="1878.62" r="242.079" style="fill:#fff;stroke:#403c5d;stroke-width:51.75px;"/><circle id="ellipse5215" serif:id="ellipse52" cx="1665.01" cy="1615.79" r="242.079" style="fill:#fff;stroke:#403c5d;stroke-width:51.75px;"/><circle id="ellipse5216" serif:id="ellipse52" cx="1243.1" cy="3248.09" r="242.079" style="fill:#fff;stroke:#403c5d;stroke-width:51.75px;"/><circle id="ellipse5217" serif:id="ellipse52" cx="2965.31" cy="495.319" r="242.079" style="fill:#fff;stroke:#403c5d;stroke-width:51.75px;"/></g></g></svg>